<?xml version="1.0" encoding="UTF-8" standalone="no"?>
<svg
   width="1024"
   height="1024"
   viewBox="0 0 1024 1024"
   version="1.1"
   id="svg3"
   sodipodi:docname="Truck-icon.svg"
   inkscape:version="1.4 (e7c3feb1, 2024-10-09)"
   inkscape:export-filename="Truck-icon.png"
   inkscape:export-xdpi="96"
   inkscape:export-ydpi="96"
   xmlns:inkscape="http://www.inkscape.org/namespaces/inkscape"
   xmlns:sodipodi="http://sodipodi.sourceforge.net/DTD/sodipodi-0.dtd"
   xmlns="http://www.w3.org/2000/svg"
   xmlns:svg="http://www.w3.org/2000/svg">
  <sodipodi:namedview
     id="namedview3"
     pagecolor="#ffffff"
     bordercolor="#000000"
     borderopacity="0.25"
     inkscape:showpageshadow="2"
     inkscape:pageopacity="0.0"
     inkscape:pagecheckerboard="0"
     inkscape:deskcolor="#d1d1d1"
     showgrid="true"
     inkscape:zoom="0.29474027"
     inkscape:cx="-139.10553"
     inkscape:cy="642.93895"
     inkscape:window-width="1584"
     inkscape:window-height="790"
     inkscape:window-x="0"
     inkscape:window-y="38"
     inkscape:window-maximized="0"
     inkscape:current-layer="svg3"
     inkscape:export-bgcolor="#ffffffff">
    <inkscape:grid
       id="grid3"
       units="px"
       originx="0"
       originy="0"
       spacingx="1"
       spacingy="1"
       empcolor="#0099e5"
       empopacity="0.30196078"
       color="#0099e5"
       opacity="0.14901961"
       empspacing="5"
       enabled="true"
       visible="true" />
  </sodipodi:namedview>
  <defs
     id="defs2">
    <filter
       id="truck-a"
       width="1.424"
       height="1.63"
       x="-0.212"
       y="-0.265"
       filterUnits="objectBoundingBox">
      <feOffset
         dy="2"
         in="SourceAlpha"
         result="shadowOffsetOuter1"
         id="feOffset1" />
      <feGaussianBlur
         in="shadowOffsetOuter1"
         result="shadowBlurOuter1"
         stdDeviation="2"
         id="feGaussianBlur1" />
      <feColorMatrix
         in="shadowBlurOuter1"
         result="shadowMatrixOuter1"
         values="0 0 0 0 0   0 0 0 0 0   0 0 0 0 0  0 0 0 0.2 0"
         id="feColorMatrix1" />
      <feMerge
         id="feMerge2">
        <feMergeNode
           in="shadowMatrixOuter1"
           id="feMergeNode1" />
        <feMergeNode
           in="SourceGraphic"
           id="feMergeNode2" />
      </feMerge>
    </filter>
  </defs>
  <g
     fill="none"
     filter="url(#truck-a)"
     transform="matrix(-28.764044,0,0,29.208711,857.16855,205.30853)"
     id="g3">
    <path
       fill="#000000"
       stroke="#ffffff"
       d="M 22.694225,15.873956 C 22.591179,16.79448 22.203732,17.603488 21.53801,18.284278 20.749536,19.090431 19.783258,19.5 18.66672,19.5 c -1.116553,0 -2.083355,-0.409726 -2.871387,-1.215822 -0.668024,-0.683384 -1.055884,-1.495812 -1.157232,-2.420383 H 10.25089 C 10.149574,16.788544 9.7617593,17.60099 9.093644,18.284228 8.3054749,19.090294 7.3387353,19.5 6.222305,19.5 5.1058418,19.5 4.1392021,19.090343 3.3507589,18.284166 2.6827768,17.600776 2.2949331,16.78835 2.1935886,15.863795 H 1.7779057 c -0.021077,0 -0.1257055,0.0024 -0.300395,0.007 -0.1984018,0.0049 -0.3270185,0.0049 -0.409153,-0.0017 -0.11079313,-0.0098 -0.11079313,-0.0098 -0.31620506,-0.02894 -0.22690514,-0.02118 -0.40616931,-0.0679 -0.55536623,-0.16563 -0.0759604,-0.05014 -0.16128842,-0.110945 -0.254538,-0.181402 -0.16909215,-0.127408 -0.29100443,-0.298216 -0.36005546,-0.50091 C -0.47358038,14.828579 -0.5,14.649036 -0.5,14.454681 c 0,-0.377846 0.13982876,-0.716516 0.40626585,-0.988475 C 0.04932398,13.319778 0.2115685,13.21009 0.38887987,13.139498 V 9.0002488 c 0,-0.071642 -0.002306,-0.2352884 -0.00693,-0.4886144 -0.00459,-0.2651203 -0.00459,-0.4529452 4.1586e-4,-0.5706085 C 0.38722885,7.8313398 0.3989769,7.6664218 0.4183437,7.4319395 0.43951645,7.1747968 0.47585214,6.9634336 0.53156939,6.7920216 0.58378352,6.6321962 0.66116252,6.4597449 0.76266229,6.274195 0.87239601,6.0736509 1.0035415,5.8948092 1.1563037,5.738515 L 3.9063221,2.9261015 C 4.1314365,2.695748 4.4205239,2.5084757 4.7707973,2.3604293 5.1207088,2.2127498 5.4565524,2.1364541 5.7778651,2.1364541 H 8.5002107 V 0.90916327 c 0,-0.37759108 0.1396632,-0.71596651 0.4064587,-0.98897109 C 9.1754555,-0.35454508 9.5121892,-0.5 9.8890419,-0.5 H 23.111509 c 0.376671,0 0.713747,0.14554312 0.982421,0.42024163 l 5.31e-4,5.4358e-4 C 24.360897,0.19402546 24.500298,0.53214687 24.5,0.90931253 V 14.454681 c 0,0.195348 -0.02642,0.375092 -0.08206,0.536699 -0.06878,0.202962 -0.190918,0.374019 -0.359817,0.501423 -0.09685,0.07313 -0.181504,0.133553 -0.256209,0.182542 -0.147785,0.09691 -0.326936,0.143607 -0.553944,0.164834 -0.205528,0.01912 -0.205528,0.01912 -0.319494,0.0292 -0.0533,0.0042 -0.129229,0.0056 -0.234255,0.0046 z M 7.5000161,7.590986 V 4.9548801 H 5.8351742 L 3.2575051,7.590986 Z M 3.1665423,7.684011 3.1490703,7.701879 c 0.00885,-0.00906 0.017472,-0.030633 0.017472,-0.036868 z"
       id="path2" />
    <path
       fill="#ffffff"
       d="m 19.91661,16.642166 c -0.351718,0.359705 -0.768478,0.540005 -1.24989,0.540005 -0.481606,0 -0.898512,-0.180101 -1.25023,-0.540005 -0.351767,-0.359606 -0.527773,-0.785929 -0.527773,-1.278272 0,-0.492393 0.175957,-0.918914 0.527773,-1.278669 0.351718,-0.359606 0.768624,-0.539707 1.25023,-0.539707 0.481412,0 0.898172,0.179952 1.24989,0.539707 0.351768,0.359954 0.527919,0.786276 0.527919,1.278669 0,0.492343 -0.175811,0.918666 -0.527919,1.278272 z m -12.4445609,0 c -0.3516699,0.359705 -0.7684783,0.540005 -1.2499387,0.540005 -0.481509,0 -0.8982201,-0.180101 -1.2500846,-0.540005 C 4.6201613,16.28256 4.444302,15.856237 4.444302,15.363894 c 0,-0.492393 0.1760539,-0.918914 0.5277238,-1.278669 0.3518159,-0.359606 0.768527,-0.539707 1.2500846,-0.539707 0.4814604,0 0.8982201,0.179952 1.2499387,0.539707 0.3520104,0.359755 0.527967,0.786276 0.527967,1.278669 0,0.492343 -0.1759566,0.918666 -0.527967,1.278272 z m 0.527967,-8.55118 H 2.6665423 V 7.6650116 c 0,-0.1231356 0.041593,-0.2273157 0.1249258,-0.3125902 L 5.4998469,4.5826426 C 5.5831307,4.4973681 5.6851437,4.4548801 5.8054966,4.4548801 h 2.1945195 z"
       id="path3" />
  </g>
</svg>
